<svg width="338" height="288" viewBox="0 0 338 288" fill="none" xmlns="http://www.w3.org/2000/svg">
<path d="M11.2725 143.078H55.5098C64.7298 143.078 72.5921 144.657 79.0967 147.814C85.6012 150.972 90.5902 155.645 94.0635 161.834C97.5368 168.023 99.2734 175.664 99.2734 184.758C99.2734 192.21 98.263 198.588 96.2422 203.893C94.2214 209.134 91.348 213.523 87.6221 217.06C83.8962 220.533 79.444 223.312 74.2656 225.396L65.835 230.416H29.9336L29.8389 207.397H54.752C58.541 207.397 61.667 206.576 64.1299 204.935C66.6559 203.229 68.5189 200.861 69.7188 197.83C70.9818 194.736 71.6133 191.136 71.6133 187.031C71.6133 182.674 71.0449 178.948 69.9082 175.854C68.8346 172.696 67.098 170.296 64.6982 168.654C62.3617 166.949 59.2988 166.097 55.5098 166.097H39.0273V281H11.2725V143.078ZM73.8867 281L48.5947 219.522L77.6758 219.428L103.536 279.674V281H73.8867ZM145.121 178.506V281H118.503V178.506H145.121ZM117.271 151.982C117.271 147.878 118.566 144.499 121.155 141.847C123.808 139.131 127.344 137.773 131.765 137.773C136.248 137.773 139.785 139.131 142.374 141.847C144.963 144.499 146.258 147.878 146.258 151.982C146.258 156.024 144.932 159.403 142.279 162.118C139.69 164.771 136.217 166.097 131.859 166.097C127.376 166.097 123.808 164.771 121.155 162.118C118.566 159.403 117.271 156.024 117.271 151.982ZM211.619 253.34C211.619 251.572 211.019 249.993 209.819 248.604C208.619 247.214 206.725 245.793 204.136 244.341C201.547 242.825 198.105 241.152 193.811 239.32C189.137 237.426 185.001 235.468 181.401 233.447C177.802 231.426 174.739 229.185 172.213 226.722C169.75 224.259 167.887 221.449 166.624 218.291C165.361 215.133 164.729 211.534 164.729 207.492C164.729 203.135 165.519 199.125 167.098 195.462C168.74 191.736 171.076 188.484 174.107 185.705C177.139 182.863 180.833 180.653 185.19 179.074C189.611 177.432 194.568 176.611 200.062 176.611C207.767 176.611 214.366 177.969 219.86 180.685C225.418 183.337 229.68 187.063 232.648 191.862C235.617 196.662 237.101 202.251 237.101 208.629H210.577C210.577 206.355 210.23 204.335 209.535 202.566C208.84 200.735 207.704 199.314 206.125 198.304C204.609 197.293 202.557 196.788 199.968 196.788C198.073 196.788 196.368 197.199 194.853 198.02C193.4 198.84 192.232 199.946 191.348 201.335C190.527 202.661 190.116 204.24 190.116 206.071C190.116 207.461 190.4 208.692 190.969 209.766C191.6 210.839 192.579 211.881 193.905 212.892C195.231 213.902 197 214.976 199.21 216.112C201.483 217.186 204.262 218.386 207.546 219.712C214.366 222.238 219.955 224.953 224.312 227.858C228.733 230.763 232.017 234.174 234.164 238.089C236.311 241.941 237.385 246.709 237.385 252.393C237.385 256.939 236.501 261.076 234.732 264.802C233.027 268.528 230.533 271.748 227.249 274.464C223.965 277.179 220.018 279.263 215.408 280.716C210.861 282.168 205.778 282.895 200.157 282.895C191.884 282.895 184.906 281.253 179.223 277.969C173.539 274.685 169.245 270.485 166.34 265.37C163.435 260.192 161.982 254.824 161.982 249.267H187.18C187.306 252.677 187.938 255.361 189.074 257.318C190.274 259.213 191.884 260.539 193.905 261.297C195.926 262.055 198.168 262.434 200.631 262.434C203.094 262.434 205.115 262.118 206.693 261.486C208.335 260.792 209.567 259.75 210.388 258.36C211.209 256.908 211.619 255.234 211.619 253.34ZM280.77 135.405V281H254.246V135.405H280.77ZM334.669 178.506L298.578 229.469L276.886 253.813L267.508 233.637L284.18 209.292L303.03 178.506H334.669ZM307.009 281L284.653 233.921L302.936 217.06L337.416 281H307.009Z" fill="#1A1A1A"/>
<path d="M69.5239 25.627L40.6387 136H12.1226L54.1123 1.63281H71.9233L69.5239 25.627ZM92.3184 136L63.2485 25.627L60.5723 1.63281H78.6602L121.019 136H92.3184ZM93.3335 85.8892V108.314H32.7021V85.8892H93.3335ZM161.901 1.63281V136H135.046V1.63281H161.901Z" fill="#A32035"/>
</svg>
